<svg width="19" height="14" viewBox="0 0 19 14" fill="none" xmlns="http://www.w3.org/2000/svg">
<path d="M15.3785 1.16345C14.2384 0.621089 13.0041 0.227441 11.7184 0C11.6958 0.000328657 11.6742 0.00976141 11.6584 0.0262434C11.5041 0.314919 11.3241 0.691071 11.2041 0.979746C9.8403 0.769932 8.45343 0.769932 7.08967 0.979746C6.96966 0.682323 6.78966 0.314919 6.6268 0.0262434C6.61823 0.00874792 6.59251 0 6.5668 0C5.28105 0.227441 4.0553 0.621089 2.9067 1.16345C2.89812 1.16345 2.88955 1.1722 2.88098 1.18094C0.549488 4.74127 -0.0933869 8.20537 0.223765 11.6345C0.223765 11.652 0.232336 11.6695 0.24948 11.6782C1.79238 12.8329 3.27528 13.5327 4.74103 13.9964C4.76675 14.0051 4.79246 13.9964 4.80103 13.9789C5.1439 13.4978 5.45248 12.9904 5.7182 12.4568C5.73534 12.4218 5.7182 12.3868 5.68391 12.378C5.19533 12.1856 4.73246 11.9582 4.27816 11.6957C4.24388 11.6782 4.24388 11.6257 4.26959 11.5995C4.36388 11.5295 4.45817 11.4508 4.55245 11.3808C4.5696 11.3633 4.59531 11.3633 4.61246 11.3721C7.56111 12.7455 10.7412 12.7455 13.6556 11.3721C13.6727 11.3633 13.6984 11.3633 13.7156 11.3808C13.8099 11.4595 13.9041 11.5295 13.9984 11.6082C14.0327 11.6345 14.0327 11.687 13.9899 11.7045C13.5441 11.9756 13.0727 12.1943 12.5841 12.3868C12.5498 12.3955 12.5412 12.4393 12.5498 12.4655C12.8241 12.9991 13.1327 13.5065 13.467 13.9876C13.4927 13.9964 13.5184 14.0051 13.5441 13.9964C15.0185 13.5327 16.5014 12.8329 18.0443 11.6782C18.0614 11.6695 18.07 11.652 18.07 11.6345C18.4471 7.67176 17.4442 4.2339 15.4128 1.18094C15.4042 1.1722 15.3956 1.16345 15.3785 1.16345ZM6.16393 9.54378C5.28105 9.54378 4.54388 8.71274 4.54388 7.68926C4.54388 6.66577 5.2639 5.83474 6.16393 5.83474C7.07252 5.83474 7.79254 6.67452 7.78397 7.68926C7.78397 8.71274 7.06395 9.54378 6.16393 9.54378ZM12.1384 9.54378C11.2555 9.54378 10.5183 8.71274 10.5183 7.68926C10.5183 6.66577 11.2384 5.83474 12.1384 5.83474C13.047 5.83474 13.767 6.67452 13.7584 7.68926C13.7584 8.71274 13.047 9.54378 12.1384 9.54378Z" fill="#BBD531"/>
</svg>
