<svg width="11" height="8" viewBox="0 0 11 8" fill="none" xmlns="http://www.w3.org/2000/svg">
<path d="M0.916831 7.5C0.751554 7.5 0.613109 7.444 0.501498 7.332C0.389887 7.22 0.333887 7.08156 0.333498 6.91667C0.333109 6.75178 0.389109 6.61333 0.501498 6.50133C0.613887 6.38933 0.752331 6.33333 0.916831 6.33333H10.2502C10.4154 6.33333 10.5541 6.38933 10.6661 6.50133C10.7781 6.61333 10.8339 6.75178 10.8335 6.91667C10.8331 7.08156 10.7771 7.22019 10.6655 7.33258C10.5539 7.44497 10.4154 7.50078 10.2502 7.5H0.916831ZM0.916831 4.58333C0.751554 4.58333 0.613109 4.52733 0.501498 4.41533C0.389887 4.30333 0.333887 4.16489 0.333498 4C0.333109 3.83511 0.389109 3.69667 0.501498 3.58467C0.613887 3.47267 0.752331 3.41667 0.916831 3.41667H10.2502C10.4154 3.41667 10.5541 3.47267 10.6661 3.58467C10.7781 3.69667 10.8339 3.83511 10.8335 4C10.8331 4.16489 10.7771 4.30353 10.6655 4.41592C10.5539 4.52831 10.4154 4.58411 10.2502 4.58333H0.916831ZM0.916831 1.66667C0.751554 1.66667 0.613109 1.61067 0.501498 1.49867C0.389887 1.38667 0.333887 1.24822 0.333498 1.08333C0.333109 0.918444 0.389109 0.78 0.501498 0.668C0.613887 0.556 0.752331 0.5 0.916831 0.5H10.2502C10.4154 0.5 10.5541 0.556 10.6661 0.668C10.7781 0.78 10.8339 0.918444 10.8335 1.08333C10.8331 1.24822 10.7771 1.38686 10.6655 1.49925C10.5539 1.61164 10.4154 1.66744 10.2502 1.66667H0.916831Z" fill="#BBD531"/>
</svg>
