<svg width="17" height="18" viewBox="0 0 17 18" fill="none" xmlns="http://www.w3.org/2000/svg">
<path fill-rule="evenodd" clip-rule="evenodd" d="M14.9909 0.616302C15.1876 0.513323 15.4029 0.477806 15.6144 0.513448C15.8259 0.54909 16.0259 0.654588 16.1935 0.818961C16.3611 0.983335 16.4902 1.20057 16.5674 1.44807C16.6446 1.69556 16.667 1.96427 16.6324 2.22621L14.8269 15.847C14.6517 17.1609 13.4927 17.9143 12.5239 17.2599C11.7135 16.7124 10.5098 15.8688 9.42715 14.9886C8.88582 14.548 7.22761 13.1371 7.4314 12.1332C7.60654 11.2747 10.3928 8.04899 11.9849 6.13116C12.6098 5.3777 12.3248 4.94304 11.5869 5.63611C9.75433 7.35691 6.81206 9.97374 5.83927 10.7104C4.9811 11.3599 4.53371 11.4708 3.99876 11.3599C3.02278 11.1579 2.11765 10.845 1.37889 10.4638C0.380625 9.94899 0.429185 8.24206 1.3781 7.74503L14.9909 0.616302Z" fill="#BBD531"/>
</svg>
